<svg
  width="320"
  height="320"
  viewBox="0 0 320 320"
  fill="none"
  xmlns="http://www.w3.org/2000/svg"
>
  <defs>
    <linearGradient id="eGrad" x1="0%" y1="0%" x2="100%" y2="100%">
      <stop offset="0%" stop-color="#3B82F6" />
      <stop offset="100%" stop-color="#8B5CF6" />
    </linearGradient>

    <linearGradient id="flameGrad" x1="0%" y1="0%" x2="100%" y2="0%">
      <stop offset="0%" stop-color="#8B5CF6" />
      <stop offset="35%" stop-color="#F43F5E" />
      <stop offset="70%" stop-color="#F97316" />
      <stop offset="100%" stop-color="#FDE047" />
    </linearGradient>

    <linearGradient id="rocketGrad" x1="0%" y1="0%" x2="0%" y2="100%">
      <stop offset="0%" stop-color="#FFFFFF" />
      <stop offset="100%" stop-color="#CBD5E1" />
    </linearGradient>

    <filter id="shadow" x="-20%" y="-20%" width="140%" height="140%">
      <feDropShadow
        dx="0"
        dy="12"
        stdDeviation="16"
        flood-color="#8B5CF6"
        flood-opacity="0.4"
      />
    </filter>
  </defs>

  <circle cx="160" cy="160" r="140" fill="url(#eGrad)" opacity="0.04" />
  <circle
    cx="160"
    cy="160"
    r="110"
    fill="none"
    stroke="url(#eGrad)"
    stroke-width="2"
    stroke-dasharray="4 16"
    opacity="0.4"
  />

  <g
    transform="translate(160, 160) rotate(-35) translate(-160, -160)"
    filter="url(#shadow)"
  >
    <line
      x1="20"
      y1="100"
      x2="60"
      y2="100"
      stroke="#3B82F6"
      stroke-width="4"
      stroke-linecap="round"
      opacity="0.5"
    />
    <line
      x1="10"
      y1="220"
      x2="50"
      y2="220"
      stroke="#8B5CF6"
      stroke-width="4"
      stroke-linecap="round"
      opacity="0.5"
    />

    <path d="M 65 145 L 145 145 L 130 160 L 145 175 L 65 175 Z" fill="url(#flameGrad)" />

    <circle cx="105" cy="153" r="3" fill="#FEF08A" />
    <circle cx="125" cy="168" r="2.5" fill="#FED7AA" />
    <circle cx="90" cy="166" r="3.5" fill="#FECDD3" />

    <path
      d="M 55 80 Q 55 70 65 70 L 155 70 Q 165 70 165 80 L 165 90 Q 165 100 155 100 L 85 100 L 85 220 L 155 220 Q 165 220 165 230 L 165 240 Q 165 250 155 250 L 65 250 Q 55 250 55 240 Z"
      fill="url(#eGrad)"
    />

    <g>
      <path d="M 135 145 L 145 142 L 145 178 L 135 175 Z" fill="#334155" />
      <path d="M 145 140 L 115 100 L 175 140 Z" fill="#8B5CF6" />
      <path d="M 145 180 L 115 220 L 175 180 Z" fill="#6D28D9" />
      <path
        d="M 145 140 L 205 140 Q 245 140 265 160 Q 245 180 205 180 L 145 180 Z"
        fill="url(#rocketGrad)"
      />
      <circle cx="205" cy="160" r="12" fill="#1E293B" />
      <circle cx="207" cy="158" r="4" fill="#60A5FA" />
    </g>
  </g>
</svg>
